<svg width="400" height="100" viewBox="0 0 400 100" xmlns="http://www.w3.org/2000/svg">
  <defs>
    <linearGradient id="gradient" x1="0%" y1="0%" x2="100%" y2="100%">
      <stop offset="0%" style="stop-color:#e91e63;stop-opacity:1" />
      <stop offset="50%" style="stop-color:#f97316;stop-opacity:1" />
      <stop offset="100%" style="stop-color:#ec4899;stop-opacity:1" />
    </linearGradient>
  </defs>
  
  <!-- C Letter -->
  <path d="M 20,30 Q 20,15 35,15 L 60,15 Q 75,15 75,30 L 75,70 Q 75,85 60,85 L 35,85 Q 20,85 20,70 L 20,30 M 30,30 L 30,70 Q 30,75 35,75 L 60,75 Q 65,75 65,70 L 65,30 Q 65,25 60,25 L 35,25 Q 30,25 30,30" 
        fill="url(#gradient)" 
        stroke="url(#gradient)" 
        stroke-width="2"/>
  
  <!-- Rounded square accent -->
  <rect x="80" y="20" width="30" height="30" rx="8" fill="url(#gradient)" opacity="0.8"/>
  
  <!-- Creatix Text -->
  <text x="120" y="68" font-family="Arial, sans-serif" font-size="52" font-weight="bold" fill="#1f2937">
    Creatix
  </text>
</svg>

